<?xml version="1.0" encoding="UTF-8" standalone="no"?>
<!-- Created with Inkscape (http://www.inkscape.org/) -->
<svg
   xmlns:dc="http://purl.org/dc/elements/1.1/"
   xmlns:cc="http://creativecommons.org/ns#"
   xmlns:rdf="http://www.w3.org/1999/02/22-rdf-syntax-ns#"
   xmlns:svg="http://www.w3.org/2000/svg"
   xmlns="http://www.w3.org/2000/svg"
   xmlns:sodipodi="http://sodipodi.sourceforge.net/DTD/sodipodi-0.dtd"
   xmlns:inkscape="http://www.inkscape.org/namespaces/inkscape"
   id="svg3112"
   sodipodi:version="0.32"
   inkscape:version="0.46"
   width="145.12962"
   height="77.248108"
   version="1.0"
   sodipodi:docname="mountain1.svg"
   inkscape:output_extension="org.inkscape.output.svg.inkscape">
  <metadata
     id="metadata3117">
    <rdf:RDF>
      <cc:Work
         rdf:about="">
        <dc:format>image/svg+xml</dc:format>
        <dc:type
           rdf:resource="http://purl.org/dc/dcmitype/StillImage" />
      </cc:Work>
    </rdf:RDF>
  </metadata>
  <defs
     id="defs3115">
    <inkscape:perspective
       sodipodi:type="inkscape:persp3d"
       inkscape:vp_x="0 : 526.18109 : 1"
       inkscape:vp_y="0 : 1000 : 0"
       inkscape:vp_z="744.09448 : 526.18109 : 1"
       inkscape:persp3d-origin="372.04724 : 350.78739 : 1"
       id="perspective3119" />
  </defs>
  <sodipodi:namedview
     inkscape:window-height="753"
     inkscape:window-width="1280"
     inkscape:pageshadow="2"
     inkscape:pageopacity="0.0"
     guidetolerance="10.0"
     gridtolerance="10.0"
     objecttolerance="10.0"
     borderopacity="1.0"
     bordercolor="#666666"
     pagecolor="#ffffff"
     id="base"
     showgrid="false"
     inkscape:zoom="6.2978183"
     inkscape:cx="72.564812"
     inkscape:cy="38.624054"
     inkscape:window-x="0"
     inkscape:window-y="24"
     inkscape:current-layer="layer7" />
  <g
     inkscape:groupmode="layer"
     id="layer7"
     inkscape:label="svg"
     style="display:inline"
     transform="translate(-1.8712108,-3.6879519)">
    <path
       style="fill:none;fill-rule:evenodd;stroke:#000000;stroke-width:1px;stroke-linecap:butt;stroke-linejoin:miter;stroke-opacity:1"
       d="M 77.456595,77.469498 C 77.456595,77.469498 77.917448,78.078329 78.271584,78.251888 C 78.62572,78.425446 79.575567,78.577883 79.575567,78.577883"
       id="path3129"
       sodipodi:nodetypes="czc" />
    <path
       style="fill:none;fill-rule:evenodd;stroke:#000000;stroke-width:1px;stroke-linecap:butt;stroke-linejoin:miter;stroke-opacity:1"
       d="M 70.382487,78.349686 C 70.382487,78.349686 73.412981,79.196476 74.164037,79.425473 C 74.915092,79.654469 76.511207,80.436059 76.511207,80.436059"
       id="path3133"
       sodipodi:nodetypes="czc" />
    <path
       style="fill:none;fill-rule:evenodd;stroke:#000000;stroke-width:1px;stroke-linecap:butt;stroke-linejoin:miter;stroke-opacity:1"
       d="M 80.260158,75.448324 C 80.260158,75.448324 82.47693,76.361113 83.650514,77.730294"
       id="path3135"
       sodipodi:nodetypes="cc" />
    <path
       style="fill:none;fill-rule:evenodd;stroke:#000000;stroke-width:1px;stroke-linecap:butt;stroke-linejoin:miter;stroke-opacity:1"
       d="M 83.422317,74.405138 C 84.889299,74.926731 85.552067,75.048473 86.160682,75.415725 C 86.769297,75.782976 87.595063,76.49151 87.595063,76.49151"
       id="path3137"
       sodipodi:nodetypes="czc" />
    <path
       style="fill:none;fill-rule:evenodd;stroke:#000000;stroke-width:1px;stroke-linecap:butt;stroke-linejoin:miter;stroke-opacity:1"
       d="M 85.280494,72.481762 C 85.280494,72.481762 86.879477,72.999159 87.790661,73.622748 C 88.68638,74.235754 91.67001,75.643921 91.67001,75.643921"
       id="path3141"
       sodipodi:nodetypes="czz" />
    <path
       style="fill:none;fill-rule:evenodd;stroke:#000000;stroke-width:1px;stroke-linecap:butt;stroke-linejoin:miter;stroke-opacity:1"
       d="M 86.584476,69.417402 C 88.703449,70.688786 88.793345,70.868167 90.92022,72.351365 C 93.068974,73.849819 94.440974,74.535536 94.440974,74.535536"
       id="path3183"
       sodipodi:nodetypes="czc" />
    <path
       style="fill:none;fill-rule:evenodd;stroke:#000000;stroke-width:1px;stroke-linecap:butt;stroke-linejoin:miter;stroke-opacity:1;display:inline"
       d="M 92.210103,62.357824 C 99.610208,66.400172 102.44788,68.83053 105.02173,70.181722 C 107.58204,71.525805 109.39008,72.365894 109.39008,72.365894"
       id="path3189"
       sodipodi:nodetypes="czc" />
    <path
       style="fill:none;fill-rule:evenodd;stroke:#000000;stroke-width:1px;stroke-linecap:butt;stroke-linejoin:miter;stroke-opacity:1;display:inline"
       d="M 89.147423,68.447394 L 97.036523,72.326743 L 99.025093,73.33733"
       id="path3185" />
    <path
       style="fill:none;fill-rule:evenodd;stroke:#000000;stroke-width:1px;stroke-linecap:butt;stroke-linejoin:miter;stroke-opacity:1;display:inline"
       d="M 90.223208,65.268935 C 90.223208,65.268935 93.850746,67.611498 95.047946,68.365894 C 96.245146,69.12029 97.298656,69.90524 98.503496,70.647865 C 99.708346,71.390491 102.18726,72.343043 102.18726,72.343043"
       id="path3187"
       sodipodi:nodetypes="czzc" />
    <path
       style="fill:none;fill-rule:evenodd;stroke:#000000;stroke-width:1px;stroke-linecap:butt;stroke-linejoin:miter;stroke-opacity:1;display:inline"
       d="M 94.310576,60.256921 C 94.310576,60.256921 97.208387,61.553664 98.581121,62.343294 C 99.953855,63.132924 101.96226,64.661605 103.40586,65.570652 C 104.84946,66.479699 107.20336,68.068631 108.5566,68.79801 C 109.90983,69.527388 112.40334,70.460589 112.40334,70.460589"
       id="path3191"
       sodipodi:nodetypes="czzzc" />
    <path
       style="fill:none;fill-rule:evenodd;stroke:#000000;stroke-width:1px;stroke-linecap:butt;stroke-linejoin:miter;stroke-opacity:1;display:inline"
       d="M 93.397788,55.464783 C 93.397788,55.464783 94.899051,56.056937 96.158525,56.776676 C 97.417999,57.496415 101.39687,60.423312 102.39527,61.10451 C 103.39367,61.785708 105.41865,63.082112 106.6095,63.940673 C 107.80034,64.799234 110.99477,66.753013 112.43594,67.591826 C 113.87711,68.430639 115.22163,69.000272 116.34789,69.482601 C 117.4915,69.97236 118.40166,70.36279 118.40166,70.36279"
       id="path3193"
       sodipodi:nodetypes="czzzzzc" />
    <path
       style="fill:none;fill-rule:evenodd;stroke:#000000;stroke-width:1px;stroke-linecap:butt;stroke-linejoin:miter;stroke-opacity:1"
       d="M 92.297733,51.437188 C 98.19889,55.30982 99.151319,56.020256 101.7027,57.707164 C 104.25408,59.394072 103.07955,58.426074 109.44796,62.501851 C 110.60053,63.239495 114.14835,65.002918 115.81015,65.775147 C 117.47194,66.547377 118.57631,67.711464 118.57631,67.711464"
       id="path3202"
       sodipodi:nodetypes="czszc" />
    <path
       style="fill:none;fill-rule:evenodd;stroke:#000000;stroke-width:1px;stroke-linecap:butt;stroke-linejoin:miter;stroke-opacity:1;display:inline"
       d="M 143.26555,34.540052 C 143.26555,34.540052 145.0905,34.674419 145.32674,34.74878 C 145.58682,34.830647 146.50083,35.427145 146.50083,35.427145"
       id="path5043"
       sodipodi:nodetypes="czc" />
    <path
       style="fill:none;fill-rule:evenodd;stroke:#000000;stroke-width:1px;stroke-linecap:butt;stroke-linejoin:miter;stroke-opacity:1;display:inline"
       d="M 137.60381,34.461779 C 137.60381,34.461779 138.57445,35.348477 139.16927,35.688055 C 139.76409,36.027632 141.56964,36.62733 141.56964,36.62733"
       id="path5045"
       sodipodi:nodetypes="czc" />
    <path
       style="fill:none;fill-rule:evenodd;stroke:#000000;stroke-width:1px;stroke-linecap:butt;stroke-linejoin:miter;stroke-opacity:1;display:inline"
       d="M 128.60242,33.470322 L 131.15934,35.244508 L 135.43826,36.549057 L 137.44726,37.540514"
       id="path5047"
       sodipodi:nodetypes="cccc" />
    <path
       style="fill:none;fill-rule:evenodd;stroke:#000000;stroke-width:1px;stroke-linecap:butt;stroke-linejoin:miter;stroke-opacity:1;display:inline"
       d="M 41.738101,28.458723 L 42.995497,28.490157"
       id="path5039" />
    <path
       style="fill:none;fill-rule:evenodd;stroke:#000000;stroke-width:1px;stroke-linecap:butt;stroke-linejoin:miter;stroke-opacity:1;display:inline"
       d="M 42.440224,26.366858 C 42.301934,26.366858 44.129714,25.425413 45.194559,25.128115"
       id="path5031"
       sodipodi:nodetypes="cc" />
    <path
       style="fill:none;fill-rule:evenodd;stroke:#000000;stroke-width:1px;stroke-linecap:butt;stroke-linejoin:miter;stroke-opacity:1;display:inline"
       d="M 42.291783,24.040992 C 42.291783,24.040992 43.890469,22.671285 44.566496,22.548102 C 45.242523,22.42492 47.148636,22.068482 47.148636,22.068482"
       id="path5033"
       sodipodi:nodetypes="czc" />
    <path
       style="fill:none;fill-rule:evenodd;stroke:#000000;stroke-width:1px;stroke-linecap:butt;stroke-linejoin:miter;stroke-opacity:1;display:inline"
       d="M 44.483702,20.749598 L 47.809515,19.51714"
       id="path5035"
       sodipodi:nodetypes="cc" />
    <path
       style="fill:none;fill-rule:evenodd;stroke:#000000;stroke-width:1px;stroke-linecap:butt;stroke-linejoin:miter;stroke-opacity:1;display:inline"
       d="M 44.857191,18.522195 C 44.857191,18.522195 46.063719,17.617985 47.032486,17.073046 C 48.001253,16.528107 49.287596,16.367038 49.270652,16.378334"
       id="path5037"
       sodipodi:nodetypes="czc" />
    <path
       style="fill:none;fill-rule:evenodd;stroke:#000000;stroke-width:1px;stroke-linecap:butt;stroke-linejoin:miter;stroke-opacity:1;display:inline"
       d="M 49.038462,12.54253 C 51.238906,12.511094 54.476702,14.397189 54.476702,14.397189"
       id="path5041"
       sodipodi:nodetypes="cc" />
    <path
       style="fill:none;fill-rule:evenodd;stroke:#000000;stroke-width:1px;stroke-linecap:butt;stroke-linejoin:miter;stroke-opacity:1"
       d="M 63.46047,19.475775 L 67.394503,21.410545 C 67.394503,21.410545 72.425215,24.082195 73.360046,24.731901 C 74.310238,25.392282 76.552417,27.505072 76.552417,27.505072"
       id="path5076"
       sodipodi:nodetypes="cczc" />
    <path
       style="fill:none;fill-rule:evenodd;stroke:#000000;stroke-width:1px;stroke-linecap:butt;stroke-linejoin:miter;stroke-opacity:1"
       d="M 63.428224,22.442423 L 66.491611,23.571039 L 69.554997,25.505809 L 73.360046,28.472457"
       id="path5074" />
    <path
       style="fill:none;fill-rule:evenodd;stroke:#000000;stroke-width:1px;stroke-linecap:butt;stroke-linejoin:miter;stroke-opacity:1"
       d="M 63.428224,26.473194 C 63.428224,26.473194 65.638892,26.897612 66.74958,27.472826 C 67.860268,28.04804 70.586875,30.47172 70.586875,30.47172 L 72.618384,32.40649"
       id="path5072"
       sodipodi:nodetypes="czcc" />
    <path
       style="fill:none;fill-rule:evenodd;stroke:#000000;stroke-width:1px;stroke-linecap:butt;stroke-linejoin:miter;stroke-opacity:1"
       d="M 63.29924,29.472089 C 63.29924,29.472089 66.299202,30.649898 67.555734,31.56809 C 68.812266,32.486282 71.747737,35.534369 71.747737,35.534369"
       id="path5070"
       sodipodi:nodetypes="czc" />
    <path
       style="fill:none;fill-rule:evenodd;stroke:#000000;stroke-width:1px;stroke-linecap:butt;stroke-linejoin:miter;stroke-opacity:1"
       d="M 63.492716,32.503229 C 63.492716,32.503229 64.836091,32.96138 65.459733,33.406122 C 66.083375,33.850864 67.491242,35.534369 67.491242,35.534369 L 68.716597,37.662617"
       id="path5068"
       sodipodi:nodetypes="czcc" />
    <path
       style="fill:none;fill-rule:evenodd;stroke:#000000;stroke-width:1px;stroke-linecap:butt;stroke-linejoin:miter;stroke-opacity:1"
       d="M 63.428224,36.598493 C 63.428224,36.598493 65.050961,37.177696 65.685456,37.630371 C 66.319951,38.083046 67.555734,39.597387 67.555734,39.597387"
       id="path5066"
       sodipodi:nodetypes="czc" />
    <path
       style="fill:none;fill-rule:evenodd;stroke:#000000;stroke-width:1px;stroke-linecap:butt;stroke-linejoin:miter;stroke-opacity:1"
       d="M 62.428593,40.435788 C 62.428593,40.435788 64.962552,41.173616 65.556472,41.564404 C 66.150392,41.955192 66.523857,42.596281 66.523857,42.596281"
       id="path5064"
       sodipodi:nodetypes="czc" />
    <path
       style="fill:none;fill-rule:evenodd;stroke:#000000;stroke-width:1px;stroke-linecap:butt;stroke-linejoin:miter;stroke-opacity:1"
       d="M 62.557577,43.337943 L 63.653947,44.466559"
       id="path5062" />
    <path
       style="fill:none;fill-rule:evenodd;stroke:#000000;stroke-width:1px;stroke-linecap:butt;stroke-linejoin:miter;stroke-opacity:1"
       d="M 60.493822,44.466559 L 62.589824,46.530315"
       id="path5060" />
    <path
       style="fill:none;fill-rule:evenodd;stroke:#000000;stroke-width:1px;stroke-linecap:butt;stroke-linejoin:miter;stroke-opacity:1"
       d="M 58.268836,47.465453 C 58.268836,47.465453 59.31841,48.140264 59.526437,48.271608 C 59.710899,48.388072 60.622807,48.529577 60.622807,48.529577"
       id="path5058"
       sodipodi:nodetypes="czc" />
    <path
       style="fill:none;fill-rule:evenodd;stroke:#000000;stroke-width:1px;stroke-linecap:butt;stroke-linejoin:miter;stroke-opacity:1"
       d="M 63.524963,15.380511 C 63.524963,15.380511 67.09361,16.83995 68.587612,17.702235 C 69.844383,18.4276 71.219735,19.613742 72.682876,20.539898 C 74.146017,21.466054 78.616172,23.667777 78.616172,23.667777"
       id="path5125"
       sodipodi:nodetypes="cszc" />
    <path
       style="fill:none;fill-rule:evenodd;stroke:#000000;stroke-width:1px;stroke-linecap:butt;stroke-linejoin:miter;stroke-opacity:1"
       d="M 62.428593,12.446109 C 62.428593,12.446109 66.803663,13.82382 68.587612,14.638849 C 70.195237,15.373321 72.327588,16.927157 73.747,17.702235 C 74.811702,18.283621 76.779462,18.546626 77.842264,18.992082 C 78.905066,19.437538 80.48645,20.507652 80.48645,20.507652"
       id="path5127"
       sodipodi:nodetypes="csszc" />
    <path
       style="fill:none;fill-rule:evenodd;stroke:#000000;stroke-width:1px;stroke-linecap:butt;stroke-linejoin:miter;stroke-opacity:1"
       d="M 62.235116,10.253368 C 62.338551,10.253368 64.565262,10.344187 65.49198,10.769307 C 66.418697,11.194427 71.08115,13.931016 72.779615,14.574356 C 74.47808,15.217696 75.931287,15.4925 76.971617,15.928695 C 78.011947,16.36489 79.64805,17.412019 79.64805,17.412019"
       id="path5129"
       sodipodi:nodetypes="czzzc" />
    <path
       style="fill:none;fill-rule:evenodd;stroke:#000000;stroke-width:1px;stroke-linecap:butt;stroke-linejoin:miter;stroke-opacity:1"
       d="M 60.397084,7.5124441 L 69.554997,10.575831 L 79.519065,14.606602"
       id="path5131" />
  </g>
  <path
     style="fill:none;fill-rule:evenodd;stroke:#000000;stroke-width:1px;stroke-linecap:butt;stroke-linejoin:miter;stroke-opacity:1"
     d="M 0.5,29.696467 C 0.5,29.696467 2.3613433,30.437147 3.4222668,30.548099 C 4.4997068,30.660779 6.3263071,29.720931 7.129371,29.963646 C 7.9324348,30.206361 10.736283,31.800499 10.736283,31.800499"
     id="path5133"
     sodipodi:nodetypes="czzc" />
  <path
     style="fill:none;fill-rule:evenodd;stroke:#000000;stroke-width:1px;stroke-linecap:butt;stroke-linejoin:miter;stroke-opacity:1"
     d="M 90.536267,44.701798 C 90.536267,44.701798 92.479547,45.133386 93.582668,45.717265 C 94.685789,46.301144 97.644535,48.817111 97.644535,48.817111 L 103.577,52.825532 C 103.577,52.825532 110.55874,56.328448 112.66276,57.742529 C 114.76678,59.15661 117.74009,61.911288 117.74009,61.911288"
     id="path5135"
     sodipodi:nodetypes="czcczc" />
  <path
     style="fill:none;fill-rule:evenodd;stroke:#000000;stroke-width:1px;stroke-linecap:butt;stroke-linejoin:miter;stroke-opacity:1"
     d="M 89.433683,41.781866 C 89.433683,41.781866 93.858944,43.403413 94.648946,43.860413 C 95.410462,44.300935 98.503709,46.845962 98.503709,46.845962 C 98.503709,46.845962 105.84431,51.509996 108.55632,53.00602 C 111.26833,54.502043 114.60654,55.859382 116.53038,56.89857 C 118.45422,57.937758 121.67006,59.808536 121.67006,59.808536"
     id="path5137"
     sodipodi:nodetypes="czczzc" />
  <path
     style="fill:none;fill-rule:evenodd;stroke:#000000;stroke-width:1px;stroke-linecap:butt;stroke-linejoin:miter;stroke-opacity:1"
     d="M 89.360464,37.807313 L 95.50671,40.960604 L 101.59951,44.701798 L 112.7162,51.061827 C 112.7162,51.061827 115.54148,53.374476 116.88496,54.108227 C 118.22844,54.841978 120.57607,55.303802 121.58817,55.925378 C 122.60027,56.546954 123.726,57.849421 123.726,57.849421"
     id="path5139"
     sodipodi:nodetypes="cccczzc" />
  <path
     style="fill:none;fill-rule:evenodd;stroke:#000000;stroke-width:1px;stroke-linecap:butt;stroke-linejoin:miter;stroke-opacity:1"
     d="M 89.574246,33.852337 C 89.574246,33.852337 93.717542,35.529946 95.50671,36.684955 C 97.295878,37.839964 99.767409,40.549657 101.33228,41.601952 C 102.89715,42.654247 104.4605,43.111853 105.71482,43.900113 C 106.96914,44.688373 109.6698,46.839623 109.6698,46.839623 C 109.6698,46.839623 115.4598,50.029729 117.57975,50.90149 C 119.6997,51.773251 122.96486,52.50306 123.67255,52.825532 C 124.40175,53.157805 124.79491,53.840999 124.79491,53.840999"
     id="path5141"
     sodipodi:nodetypes="czzzczzc" />
  <path
     style="fill:none;fill-rule:evenodd;stroke:#000000;stroke-width:1px;stroke-linecap:butt;stroke-linejoin:miter;stroke-opacity:1"
     d="M 88.772562,29.737024 L 93.849896,32.195523 C 93.849896,32.195523 97.881094,35.708888 99.515129,36.845292 C 101.14917,37.981696 104.64591,39.838246 104.64591,39.838246 L 108.81467,42.884647 L 121.37439,48.870556 C 121.37439,48.870556 125.57409,50.478062 126.7724,51.115272 C 127.97071,51.752482 129.44468,52.878978 129.44468,52.878978"
     id="path5143"
     sodipodi:nodetypes="cczccczc" />
  <path
     style="fill:none;fill-rule:evenodd;stroke:#000000;stroke-width:1px;stroke-linecap:butt;stroke-linejoin:miter;stroke-opacity:1"
     d="M 84.369587,23.717405 C 84.369587,23.717405 88.901176,25.708851 90.416269,26.665162 C 91.931362,27.621473 94.497779,29.915253 94.497779,29.915253 L 103.03872,35.281683 L 114.67858,41.933033 L 127.4522,48.811134 L 135.46405,52.968227"
     id="path5145"
     sodipodi:nodetypes="czccccc" />
  <path
     style="fill:none;fill-rule:evenodd;stroke:#000000;stroke-width:1px;stroke-linecap:butt;stroke-linejoin:miter;stroke-opacity:1"
     d="M 96.614118,29.83967 L 115.66117,39.892278 C 115.66117,39.892278 121.0223,43.478867 124.27769,45.031958 C 127.53308,46.585049 135.05115,48.694633 137.42922,49.869303 C 139.80729,51.043973 140.52814,51.834475 140.52814,51.834475"
     id="path5147"
     sodipodi:nodetypes="cczzc" />
  <path
     style="fill:none;fill-rule:evenodd;stroke:#000000;stroke-width:1px;stroke-linecap:butt;stroke-linejoin:miter;stroke-opacity:1"
     d="M 93.590777,22.810402 L 100.62005,26.891912 L 106.66673,30.897839 L 111.80641,34.072347 L 118.83567,38.078274 L 129.64412,42.840035 L 136.67339,46.921546"
     id="path5149" />
  <path
     style="fill:none;fill-rule:evenodd;stroke:#000000;stroke-width:1px;stroke-linecap:butt;stroke-linejoin:miter;stroke-opacity:1"
     d="M 92.38144,18.426558 L 97.52112,21.827816 L 104.70156,27.043079 L 109.61448,29.915253 C 109.61448,29.915253 111.59678,31.600797 115.73675,33.845596 C 119.87672,36.090395 135.07214,43.17099 136.37105,43.747038 C 137.703,44.337742 140.30139,45.712209 140.30139,45.712209"
     id="path5151"
     sodipodi:nodetypes="cccczzc" />
  <path
     style="fill:none;fill-rule:evenodd;stroke:#000000;stroke-width:1px;stroke-linecap:butt;stroke-linejoin:miter;stroke-opacity:1"
     d="M 90.265102,12.68221 L 92.910525,13.96713 L 98.503709,18.955643 L 103.79455,22.054567 L 109.76565,26.136077 L 115.73675,29.990837 L 121.85901,33.014178 L 134.40588,38.985276 L 137.5048,40.723697"
     id="path5153" />
  <path
     style="fill:none;fill-rule:evenodd;stroke:#000000;stroke-width:1px;stroke-linecap:butt;stroke-linejoin:miter;stroke-opacity:1"
     d="M 11.107364,29.314513 C 11.155911,29.295094 12.270005,29.132275 12.866005,29.080692 C 13.462005,29.029109 14.269221,29.177506 15.661024,28.657623 C 17.07473,28.129558 21.553832,26.464474 23.90277,24.926741 C 26.251708,23.389008 29.330472,19.908323 30.856454,18.728892 C 32.382436,17.549461 32.345425,18.038248 33.804211,16.763721 C 35.262997,15.489194 38.328221,10.434925 40.00206,9.7344531 C 42.356151,9.7142331 41.26324,9.6660941 42.723067,9.8856201 C 43.729393,9.6516451 45.108852,8.6196781 46.351076,7.8448651 C 47.5933,7.0700521 49.54968,5.7669886 50.961671,4.6703571 C 52.373662,3.5737256 54.278213,1.0074388 55.723432,0.51326348 C 57.546568,0.62375638 57.463945,0.37787928 59.578192,0.58884698 C 61.843606,1.6312334 67.00853,4.9546257 69.6308,5.80411 C 72.25307,6.6535941 74.460149,6.6408531 76.660068,6.9378631 C 78.859987,7.2348731 81.917621,7.2361201 84.294004,7.7692811 C 86.670387,8.3024421 90.572287,9.6258371 92.38144,10.565872 C 94.190593,11.505907 94.801579,12.147439 96.462951,13.513629 C 98.124323,14.879819 100.87525,18.149721 103.26546,19.862645 C 105.60548,21.53959 116.50911,28.010478 120.34734,29.83967 C 124.18557,31.668862 126.52963,32.094322 128.3592,32.863011 C 130.18877,33.6317 132.59188,34.828182 132.59188,34.828182"
     id="path5155"
     sodipodi:nodetypes="czzzzzcczzcczzzzzzzzc" />
</svg>
